<svg width="117" height="100" viewBox="0 0 117 100" fill="none" xmlns="http://www.w3.org/2000/svg">
<path d="M40.9648 77.6172C40.9648 78.0078 40.5156 78.3203 39.9492 78.3203C39.3047 78.3789 38.8555 78.0664 38.8555 77.6172C38.8555 77.2266 39.3047 76.9141 39.8711 76.9141C40.457 76.8555 40.9648 77.168 40.9648 77.6172ZM34.8906 76.7383C34.7539 77.1289 35.1445 77.5781 35.7305 77.6953C36.2383 77.8906 36.8242 77.6953 36.9414 77.3047C37.0586 76.9141 36.6875 76.4648 36.1016 76.2891C35.5938 76.1523 35.0273 76.3477 34.8906 76.7383ZM43.5234 76.4062C42.957 76.543 42.5664 76.9141 42.625 77.3633C42.6836 77.7539 43.1914 78.0078 43.7773 77.8711C44.3438 77.7344 44.7344 77.3633 44.6758 76.9727C44.6172 76.6016 44.0898 76.3477 43.5234 76.4062ZM56.375 1.5625C29.2852 1.5625 8.5625 22.1289 8.5625 49.2188C8.5625 70.8789 22.1953 89.4141 41.668 95.9375C44.168 96.3867 45.0469 94.8438 45.0469 93.5742C45.0469 92.3633 44.9883 85.6836 44.9883 81.582C44.9883 81.582 31.3164 84.5117 28.4453 75.7617C28.4453 75.7617 26.2188 70.0781 23.0156 68.6133C23.0156 68.6133 18.543 65.5469 23.3281 65.6055C23.3281 65.6055 28.1914 65.9961 30.8672 70.6445C35.1445 78.1836 42.3125 76.0156 45.1055 74.7266C45.5547 71.6016 46.8242 69.4336 48.2305 68.1445C37.3125 66.9336 26.2969 65.3516 26.2969 46.5625C26.2969 41.1914 27.7812 38.4961 30.9062 35.0586C30.3984 33.7891 28.7383 28.5547 31.4141 21.7969C35.4961 20.5273 44.8906 27.0703 44.8906 27.0703C48.7969 25.9766 52.9961 25.4102 57.1562 25.4102C61.3164 25.4102 65.5156 25.9766 69.4219 27.0703C69.4219 27.0703 78.8164 20.5078 82.8984 21.7969C85.5742 28.5742 83.9141 33.7891 83.4062 35.0586C86.5312 38.5156 88.4453 41.2109 88.4453 46.5625C88.4453 65.4102 76.9414 66.9141 66.0234 68.1445C67.8203 69.6875 69.3438 72.6172 69.3438 77.207C69.3438 83.7891 69.2852 91.9336 69.2852 93.5352C69.2852 94.8047 70.1836 96.3477 72.6641 95.8984C92.1953 89.4141 105.438 70.8789 105.438 49.2188C105.438 22.1289 83.4648 1.5625 56.375 1.5625ZM27.5469 68.9258C27.293 69.1211 27.3516 69.5703 27.6836 69.9414C27.9961 70.2539 28.4453 70.3906 28.6992 70.1367C28.9531 69.9414 28.8945 69.4922 28.5625 69.1211C28.25 68.8086 27.8008 68.6719 27.5469 68.9258ZM25.4375 67.3438C25.3008 67.5977 25.4961 67.9102 25.8867 68.1055C26.1992 68.3008 26.5898 68.2422 26.7266 67.9688C26.8633 67.7148 26.668 67.4023 26.2773 67.207C25.8867 67.0898 25.5742 67.1484 25.4375 67.3438ZM31.7656 74.2969C31.4531 74.5508 31.5703 75.1367 32.0195 75.5078C32.4688 75.957 33.0352 76.0156 33.2891 75.7031C33.543 75.4492 33.4258 74.8633 33.0352 74.4922C32.6055 74.043 32.0195 73.9844 31.7656 74.2969ZM29.5391 71.4258C29.2266 71.6211 29.2266 72.1289 29.5391 72.5781C29.8516 73.0273 30.3789 73.2227 30.6328 73.0273C30.9453 72.7734 30.9453 72.2656 30.6328 71.8164C30.3594 71.3672 29.8516 71.1719 29.5391 71.4258Z" fill="#FAFBFC" fill-opacity="0.5"/>
<path d="M50.9648 77.6172C50.9648 78.0078 50.5156 78.3203 49.9492 78.3203C49.3047 78.3789 48.8555 78.0664 48.8555 77.6172C48.8555 77.2266 49.3047 76.9141 49.8711 76.9141C50.457 76.8555 50.9648 77.168 50.9648 77.6172ZM44.8906 76.7383C44.7539 77.1289 45.1445 77.5781 45.7305 77.6953C46.2383 77.8906 46.8242 77.6953 46.9414 77.3047C47.0586 76.9141 46.6875 76.4648 46.1016 76.2891C45.5938 76.1523 45.0273 76.3477 44.8906 76.7383ZM53.5234 76.4062C52.957 76.543 52.5664 76.9141 52.625 77.3633C52.6836 77.7539 53.1914 78.0078 53.7773 77.8711C54.3438 77.7344 54.7344 77.3633 54.6758 76.9727C54.6172 76.6016 54.0898 76.3477 53.5234 76.4062ZM66.375 1.5625C39.2852 1.5625 18.5625 22.1289 18.5625 49.2188C18.5625 70.8789 32.1953 89.4141 51.668 95.9375C54.168 96.3867 55.0469 94.8438 55.0469 93.5742C55.0469 92.3633 54.9883 85.6836 54.9883 81.582C54.9883 81.582 41.3164 84.5117 38.4453 75.7617C38.4453 75.7617 36.2188 70.0781 33.0156 68.6133C33.0156 68.6133 28.543 65.5469 33.3281 65.6055C33.3281 65.6055 38.1914 65.9961 40.8672 70.6445C45.1445 78.1836 52.3125 76.0156 55.1055 74.7266C55.5547 71.6016 56.8242 69.4336 58.2305 68.1445C47.3125 66.9336 36.2969 65.3516 36.2969 46.5625C36.2969 41.1914 37.7812 38.4961 40.9062 35.0586C40.3984 33.7891 38.7383 28.5547 41.4141 21.7969C45.4961 20.5273 54.8906 27.0703 54.8906 27.0703C58.7969 25.9766 62.9961 25.4102 67.1562 25.4102C71.3164 25.4102 75.5156 25.9766 79.4219 27.0703C79.4219 27.0703 88.8164 20.5078 92.8984 21.7969C95.5742 28.5742 93.9141 33.7891 93.4062 35.0586C96.5312 38.5156 98.4453 41.2109 98.4453 46.5625C98.4453 65.4102 86.9414 66.9141 76.0234 68.1445C77.8203 69.6875 79.3438 72.6172 79.3438 77.207C79.3438 83.7891 79.2852 91.9336 79.2852 93.5352C79.2852 94.8047 80.1836 96.3477 82.6641 95.8984C102.195 89.4141 115.438 70.8789 115.438 49.2188C115.438 22.1289 93.4648 1.5625 66.375 1.5625ZM37.5469 68.9258C37.293 69.1211 37.3516 69.5703 37.6836 69.9414C37.9961 70.2539 38.4453 70.3906 38.6992 70.1367C38.9531 69.9414 38.8945 69.4922 38.5625 69.1211C38.25 68.8086 37.8008 68.6719 37.5469 68.9258ZM35.4375 67.3438C35.3008 67.5977 35.4961 67.9102 35.8867 68.1055C36.1992 68.3008 36.5898 68.2422 36.7266 67.9688C36.8633 67.7148 36.668 67.4023 36.2773 67.207C35.8867 67.0898 35.5742 67.1484 35.4375 67.3438ZM41.7656 74.2969C41.4531 74.5508 41.5703 75.1367 42.0195 75.5078C42.4688 75.957 43.0352 76.0156 43.2891 75.7031C43.543 75.4492 43.4258 74.8633 43.0352 74.4922C42.6055 74.043 42.0195 73.9844 41.7656 74.2969ZM39.5391 71.4258C39.2266 71.6211 39.2266 72.1289 39.5391 72.5781C39.8516 73.0273 40.3789 73.2227 40.6328 73.0273C40.9453 72.7734 40.9453 72.2656 40.6328 71.8164C40.3594 71.3672 39.8516 71.1719 39.5391 71.4258Z" fill="black" fill-opacity="0.5"/>
<path d="M33.9648 77.6172C33.9648 78.0078 33.5156 78.3203 32.9492 78.3203C32.3047 78.3789 31.8555 78.0664 31.8555 77.6172C31.8555 77.2266 32.3047 76.9141 32.8711 76.9141C33.457 76.8555 33.9648 77.168 33.9648 77.6172ZM27.8906 76.7383C27.7539 77.1289 28.1445 77.5781 28.7305 77.6953C29.2383 77.8906 29.8242 77.6953 29.9414 77.3047C30.0586 76.9141 29.6875 76.4648 29.1016 76.2891C28.5938 76.1523 28.0273 76.3477 27.8906 76.7383ZM36.5234 76.4062C35.957 76.543 35.5664 76.9141 35.625 77.3633C35.6836 77.7539 36.1914 78.0078 36.7773 77.8711C37.3438 77.7344 37.7344 77.3633 37.6758 76.9727C37.6172 76.6016 37.0898 76.3477 36.5234 76.4062ZM49.375 1.5625C22.2852 1.5625 1.5625 22.1289 1.5625 49.2188C1.5625 70.8789 15.1953 89.4141 34.668 95.9375C37.168 96.3867 38.0469 94.8438 38.0469 93.5742C38.0469 92.3633 37.9883 85.6836 37.9883 81.582C37.9883 81.582 24.3164 84.5117 21.4453 75.7617C21.4453 75.7617 19.2188 70.0781 16.0156 68.6133C16.0156 68.6133 11.543 65.5469 16.3281 65.6055C16.3281 65.6055 21.1914 65.9961 23.8672 70.6445C28.1445 78.1836 35.3125 76.0156 38.1055 74.7266C38.5547 71.6016 39.8242 69.4336 41.2305 68.1445C30.3125 66.9336 19.2969 65.3516 19.2969 46.5625C19.2969 41.1914 20.7812 38.4961 23.9062 35.0586C23.3984 33.7891 21.7383 28.5547 24.4141 21.7969C28.4961 20.5273 37.8906 27.0703 37.8906 27.0703C41.7969 25.9766 45.9961 25.4102 50.1562 25.4102C54.3164 25.4102 58.5156 25.9766 62.4219 27.0703C62.4219 27.0703 71.8164 20.5078 75.8984 21.7969C78.5742 28.5742 76.9141 33.7891 76.4062 35.0586C79.5312 38.5156 81.4453 41.2109 81.4453 46.5625C81.4453 65.4102 69.9414 66.9141 59.0234 68.1445C60.8203 69.6875 62.3438 72.6172 62.3438 77.207C62.3438 83.7891 62.2852 91.9336 62.2852 93.5352C62.2852 94.8047 63.1836 96.3477 65.6641 95.8984C85.1953 89.4141 98.4375 70.8789 98.4375 49.2188C98.4375 22.1289 76.4648 1.5625 49.375 1.5625ZM20.5469 68.9258C20.293 69.1211 20.3516 69.5703 20.6836 69.9414C20.9961 70.2539 21.4453 70.3906 21.6992 70.1367C21.9531 69.9414 21.8945 69.4922 21.5625 69.1211C21.25 68.8086 20.8008 68.6719 20.5469 68.9258ZM18.4375 67.3438C18.3008 67.5977 18.4961 67.9102 18.8867 68.1055C19.1992 68.3008 19.5898 68.2422 19.7266 67.9688C19.8633 67.7148 19.668 67.4023 19.2773 67.207C18.8867 67.0898 18.5742 67.1484 18.4375 67.3438ZM24.7656 74.2969C24.4531 74.5508 24.5703 75.1367 25.0195 75.5078C25.4688 75.957 26.0352 76.0156 26.2891 75.7031C26.543 75.4492 26.4258 74.8633 26.0352 74.4922C25.6055 74.043 25.0195 73.9844 24.7656 74.2969ZM22.5391 71.4258C22.2266 71.6211 22.2266 72.1289 22.5391 72.5781C22.8516 73.0273 23.3789 73.2227 23.6328 73.0273C23.9453 72.7734 23.9453 72.2656 23.6328 71.8164C23.3594 71.3672 22.8516 71.1719 22.5391 71.4258Z" fill="#2DBA4E"/>
</svg>
