<svg width="1439" height="127" viewBox="0 0 1439 127" fill="none" xmlns="http://www.w3.org/2000/svg">
<path d="M1440 127.5V27.79L1436.4 27.23L1432.8 26.66L1429.2 26.1L1425.6 25.54L1422 24.98L1418.4 24.43L1414.8 23.88L1411.2 23.33L1407.6 22.79L1404 22.25L1400.4 21.71L1396.8 21.18L1393.2 20.65L1389.6 20.13L1386 19.61L1382.4 19.09L1378.8 18.58L1375.2 18.07L1371.6 17.57L1368 17.08L1364.4 16.58L1360.8 16.1L1357.2 15.62L1353.6 15.14L1350 14.67L1346.4 14.21L1342.8 13.75L1339.2 13.3L1335.6 12.85L1332 12.41L1328.4 11.97L1324.8 11.54L1321.2 11.12L1317.6 10.71L1314 10.3L1310.4 9.9L1306.8 9.5L1303.2 9.11L1299.6 8.73L1296 8.36L1292.4 7.99L1288.8 7.63L1285.2 7.28L1281.6 6.93L1278 6.6L1274.4 6.27L1270.8 5.94L1267.2 5.63L1263.6 5.32L1260 5.02L1256.4 4.73L1252.8 4.45L1249.2 4.18L1245.6 3.91L1242 3.65L1238.4 3.4L1234.8 3.16L1231.2 2.93L1227.6 2.71L1224 2.49L1220.4 2.28L1216.8 2.09L1213.2 1.9L1209.6 1.72L1206 1.54L1202.4 1.38L1198.8 1.23L1195.2 1.08L1191.6 0.949997L1188 0.82L1184.4 0.699997L1180.8 0.589996L1177.2 0.489998L1173.6 0.400002L1170 0.32L1166.4 0.25L1162.8 0.190002L1159.2 0.129997L1155.6 0.0899963L1152 0.0500031L1148.4 0.0299988L1144.8 0.0100021L1141.2 0H1137.6L1134 0.0100021L1130.4 0.0299988L1126.8 0.0599976L1123.2 0.0999985L1119.6 0.150002L1116 0.209999L1112.4 0.269997L1108.8 0.349998L1105.2 0.43L1101.6 0.529999L1098 0.629997L1094.4 0.739998L1090.8 0.860001L1087.2 0.989998L1083.6 1.13L1080 1.28L1076.4 1.43L1072.8 1.6L1069.2 1.78L1065.6 1.96L1062 2.15L1058.4 2.35L1054.8 2.56L1051.2 2.78L1047.6 3.01L1044 3.24L1040.4 3.49L1036.8 3.74L1033.2 4L1029.6 4.27L1026 4.54L1022.4 4.83L1018.8 5.12L1015.2 5.42L1011.6 5.73L1008 6.05L1004.4 6.37L1000.8 6.71L997.2 7.05L993.6 7.39L990 7.75L986.4 8.11L982.8 8.48L979.2 8.86L975.6 9.24L972 9.63L968.4 10.03L964.8 10.43L961.2 10.85L957.6 11.26L954 11.69L950.4 12.12L946.8 12.55L943.2 13L939.6 13.45L936 13.9L932.4 14.36L928.8 14.83L925.2 15.3L921.6 15.78L918 16.26L914.4 16.75L910.8 17.24L907.2 17.74L903.6 18.24L900 18.75L896.4 19.26L892.8 19.78L889.2 20.3L885.6 20.83L882 21.36L878.4 21.89L874.8 22.43L871.2 22.97L867.6 23.51L864 24.06L860.4 24.61L856.8 25.17L853.2 25.73L849.6 26.29L846 26.85L842.4 27.42L838.8 27.98L835.2 28.55L831.6 29.13L828 29.7L824.4 30.28L820.8 30.86L817.2 31.44L813.6 32.02L810 32.61L806.4 33.19L802.8 33.78L799.2 34.36L795.6 34.95L792 35.54L788.4 36.13L784.8 36.71L781.2 37.3L777.6 37.89L774 38.48L770.4 39.07L766.8 39.66L763.2 40.25L759.6 40.83L756 41.42L752.4 42.01L748.8 42.59L745.2 43.17L741.6 43.75L738 44.33L734.4 44.91L730.8 45.49L727.2 46.06L723.6 46.64L720 47.21L716.4 47.77L712.8 48.34L709.2 48.9L705.6 49.46L702 50.02L698.4 50.57L694.8 51.12L691.2 51.67L687.6 52.21L684 52.75L680.4 53.29L676.8 53.82L673.2 54.35L669.6 54.87L666 55.39L662.4 55.91L658.8 56.42L655.2 56.93L651.6 57.43L648 57.92L644.4 58.42L640.8 58.9L637.2 59.38L633.6 59.86L630 60.33L626.4 60.79L622.8 61.25L619.2 61.7L615.6 62.15L612 62.59L608.4 63.03L604.8 63.46L601.2 63.88L597.6 64.29L594 64.7L590.4 65.1L586.8 65.5L583.2 65.89L579.6 66.27L576 66.64L572.4 67.01L568.8 67.37L565.2 67.72L561.6 68.07L558 68.4L554.4 68.73L550.8 69.06L547.2 69.37L543.6 69.68L540 69.98L536.4 70.27L532.8 70.55L529.2 70.82L525.6 71.09L522 71.35L518.4 71.6L514.8 71.84L511.2 72.07L507.6 72.29L504 72.51L500.4 72.72L496.8 72.91L493.2 73.1L489.6 73.28L486 73.46L482.4 73.62L478.8 73.77L475.2 73.92L471.6 74.05L468 74.18L464.4 74.3L460.8 74.41L457.2 74.51L453.6 74.6L450 74.68L446.4 74.75L442.8 74.81L439.2 74.87L435.6 74.91L432 74.95L428.4 74.97L424.8 74.99L421.2 75H417.6L414 74.99L410.4 74.97L406.8 74.94L403.2 74.9L399.6 74.85L396 74.79L392.4 74.73L388.8 74.65L385.2 74.57L381.6 74.47L378 74.37L374.4 74.26L370.8 74.14L367.2 74.01L363.6 73.87L360 73.72L356.4 73.57L352.8 73.4L349.2 73.22L345.6 73.04L342 72.85L338.4 72.65L334.8 72.44L331.2 72.22L327.6 71.99L324 71.76L320.4 71.51L316.8 71.26L313.2 71L309.6 70.73L306 70.46L302.4 70.17L298.8 69.88L295.2 69.58L291.6 69.27L288 68.95L284.4 68.63L280.8 68.29L277.2 67.95L273.6 67.61L270 67.25L266.4 66.89L262.8 66.52L259.2 66.14L255.6 65.76L252 65.37L248.4 64.97L244.8 64.57L241.2 64.15L237.6 63.74L234 63.31L230.4 62.88L226.8 62.45L223.2 62L219.6 61.55L216 61.1L212.4 60.64L208.8 60.17L205.2 59.7L201.6 59.22L198 58.74L194.4 58.25L190.8 57.76L187.2 57.26L183.6 56.76L180 56.25L176.4 55.74L172.8 55.22L169.2 54.7L165.6 54.17L162 53.64L158.4 53.11L154.8 52.57L151.2 52.03L147.6 51.49L144 50.94L140.4 50.39L136.8 49.83L133.2 49.27L129.6 48.71L126 48.15L122.4 47.58L118.8 47.02L115.2 46.45L111.6 45.87L108 45.3L104.4 44.72L100.8 44.14L97.2 43.56L93.6 42.98L90 42.39L86.4 41.81L82.8 41.22L79.2 40.64L75.6 40.05L72 39.46L68.4 38.87L64.8 38.29L61.2 37.7L57.6 37.11L54 36.52L50.4 35.93L46.8 35.34L43.2 34.75L39.6 34.17L36 33.58L32.4 32.99L28.8 32.41L25.2 31.83L21.6 31.25L18 30.67L14.4 30.09L10.8 29.51L7.19995 28.94L3.59998 28.36L0 27.79V127.5H1440Z" fill="#2DBA4E"/>
</svg>
