<svg width="1440" height="128" viewBox="0 0 1440 128" fill="none" xmlns="http://www.w3.org/2000/svg">
<path d="M0 0V99.71L3.6 100.27L7.2 100.84L10.8 101.4L14.4 101.96L18 102.52L21.6 103.07L25.2 103.62L28.8 104.17L32.4 104.71L36 105.25L39.6 105.79L43.2 106.32L46.8 106.85L50.4 107.37L54 107.89L57.6 108.41L61.2 108.92L64.8 109.43L68.4 109.93L72 110.42L75.6 110.92L79.2 111.4L82.8 111.88L86.4 112.36L90 112.83L93.6 113.29L97.2 113.75L100.8 114.2L104.4 114.65L108 115.09L111.6 115.53L115.2 115.96L118.8 116.38L122.4 116.79L126 117.2L129.6 117.6L133.2 118L136.8 118.39L140.4 118.77L144 119.14L147.6 119.51L151.2 119.87L154.8 120.22L158.4 120.57L162 120.9L165.6 121.23L169.2 121.56L172.8 121.87L176.4 122.18L180 122.48L183.6 122.77L187.2 123.05L190.8 123.32L194.4 123.59L198 123.85L201.6 124.1L205.2 124.34L208.8 124.57L212.4 124.79L216 125.01L219.6 125.22L223.2 125.41L226.8 125.6L230.4 125.78L234 125.96L237.6 126.12L241.2 126.27L244.8 126.42L248.4 126.55L252 126.68L255.6 126.8L259.2 126.91L262.8 127.01L266.4 127.1L270 127.18L273.6 127.25L277.2 127.31L280.8 127.37L284.4 127.41L288 127.45L291.6 127.47L295.2 127.49L298.8 127.5H302.4L306 127.49L309.6 127.47L313.2 127.44L316.8 127.4L320.4 127.35L324 127.29L327.6 127.23L331.2 127.15L334.8 127.07L338.4 126.97L342 126.87L345.6 126.76L349.2 126.64L352.8 126.51L356.4 126.37L360 126.22L363.6 126.07L367.2 125.9L370.8 125.72L374.4 125.54L378 125.35L381.6 125.15L385.2 124.94L388.8 124.72L392.4 124.49L396 124.26L399.6 124.01L403.2 123.76L406.8 123.5L410.4 123.23L414 122.96L417.6 122.67L421.2 122.38L424.8 122.08L428.4 121.77L432 121.45L435.6 121.13L439.2 120.79L442.8 120.45L446.4 120.11L450 119.75L453.6 119.39L457.2 119.02L460.8 118.64L464.4 118.26L468 117.87L471.6 117.47L475.2 117.07L478.8 116.65L482.4 116.24L486 115.81L489.6 115.38L493.2 114.95L496.8 114.5L500.4 114.05L504 113.6L507.6 113.14L511.2 112.67L514.8 112.2L518.4 111.72L522 111.24L525.6 110.75L529.2 110.26L532.8 109.76L536.4 109.26L540 108.75L543.6 108.24L547.2 107.72L550.8 107.2L554.4 106.67L558 106.14L561.6 105.61L565.2 105.07L568.8 104.53L572.4 103.99L576 103.44L579.6 102.89L583.2 102.33L586.8 101.77L590.4 101.21L594 100.65L597.6 100.08L601.2 99.52L604.8 98.95L608.4 98.37L612 97.8L615.6 97.22L619.2 96.64L622.8 96.06L626.4 95.48L630 94.89L633.6 94.31L637.2 93.72L640.8 93.14L644.4 92.55L648 91.96L651.6 91.37L655.2 90.79L658.8 90.2L662.4 89.61L666 89.02L669.6 88.43L673.2 87.84L676.8 87.25L680.4 86.67L684 86.08L687.6 85.49L691.2 84.91L694.8 84.33L698.4 83.75L702 83.17L705.6 82.59L709.2 82.01L712.8 81.44L716.4 80.86L720 80.29L723.6 79.73L727.2 79.16L730.8 78.6L734.4 78.04L738 77.48L741.6 76.93L745.2 76.38L748.8 75.83L752.4 75.29L756 74.75L759.6 74.21L763.2 73.68L766.8 73.15L770.4 72.63L774 72.11L777.6 71.59L781.2 71.08L784.8 70.57L788.4 70.07L792 69.58L795.6 69.08L799.2 68.6L802.8 68.12L806.4 67.64L810 67.17L813.6 66.71L817.2 66.25L820.8 65.8L824.4 65.35L828 64.91L831.6 64.47L835.2 64.04L838.8 63.62L842.4 63.21L846 62.8L849.6 62.4L853.2 62L856.8 61.61L860.4 61.23L864 60.86L867.6 60.49L871.2 60.13L874.8 59.78L878.4 59.43L882 59.1L885.6 58.77L889.2 58.44L892.8 58.13L896.4 57.82L900 57.52L903.6 57.23L907.2 56.95L910.8 56.68L914.4 56.41L918 56.15L921.6 55.9L925.2 55.66L928.8 55.43L932.4 55.21L936 54.99L939.6 54.78L943.2 54.59L946.8 54.4L950.4 54.22L954 54.04L957.6 53.88L961.2 53.73L964.8 53.58L968.4 53.45L972 53.32L975.6 53.2L979.2 53.09L982.8 52.99L986.4 52.9L990 52.82L993.6 52.75L997.2 52.69L1000.8 52.63L1004.4 52.59L1008 52.55L1011.6 52.53L1015.2 52.51L1018.8 52.5H1022.4L1026 52.51L1029.6 52.53L1033.2 52.56L1036.8 52.6L1040.4 52.65L1044 52.71L1047.6 52.77L1051.2 52.85L1054.8 52.93L1058.4 53.03L1062 53.13L1065.6 53.24L1069.2 53.36L1072.8 53.49L1076.4 53.63L1080 53.78L1083.6 53.93L1087.2 54.1L1090.8 54.28L1094.4 54.46L1098 54.65L1101.6 54.85L1105.2 55.06L1108.8 55.28L1112.4 55.51L1116 55.74L1119.6 55.99L1123.2 56.24L1126.8 56.5L1130.4 56.77L1134 57.04L1137.6 57.33L1141.2 57.62L1144.8 57.92L1148.4 58.23L1152 58.55L1155.6 58.87L1159.2 59.21L1162.8 59.55L1166.4 59.89L1170 60.25L1173.6 60.61L1177.2 60.98L1180.8 61.36L1184.4 61.74L1188 62.13L1191.6 62.53L1195.2 62.93L1198.8 63.35L1202.4 63.76L1206 64.19L1209.6 64.62L1213.2 65.05L1216.8 65.5L1220.4 65.95L1224 66.4L1227.6 66.86L1231.2 67.33L1234.8 67.8L1238.4 68.28L1242 68.76L1245.6 69.25L1249.2 69.74L1252.8 70.24L1256.4 70.74L1260 71.25L1263.6 71.76L1267.2 72.28L1270.8 72.8L1274.4 73.33L1278 73.86L1281.6 74.39L1285.2 74.93L1288.8 75.47L1292.4 76.01L1296 76.56L1299.6 77.11L1303.2 77.67L1306.8 78.23L1310.4 78.79L1314 79.35L1317.6 79.92L1321.2 80.48L1324.8 81.05L1328.4 81.63L1332 82.2L1335.6 82.78L1339.2 83.36L1342.8 83.94L1346.4 84.52L1350 85.11L1353.6 85.69L1357.2 86.28L1360.8 86.86L1364.4 87.45L1368 88.04L1371.6 88.63L1375.2 89.21L1378.8 89.8L1382.4 90.39L1386 90.98L1389.6 91.57L1393.2 92.16L1396.8 92.75L1400.4 93.33L1404 93.92L1407.6 94.51L1411.2 95.09L1414.8 95.67L1418.4 96.25L1422 96.83L1425.6 97.41L1429.2 97.99L1432.8 98.56L1436.4 99.14L1440 99.71V0H0Z" fill="#2DBA4E"/>
</svg>
