<svg width="1440" height="53" viewBox="0 0 1440 53" fill="none" xmlns="http://www.w3.org/2000/svg">
<path d="M0 0V43.24L3.6 43.42L7.2 43.61L10.8 43.8L14.4 43.99L18 44.17L21.6 44.36L25.2 44.54L28.8 44.72L32.4 44.9L36 45.08L39.6 45.26L43.2 45.44L46.8 45.62L50.4 45.79L54 45.96L57.6 46.14L61.2 46.31L64.8 46.48L68.4 46.64L72 46.81L75.6 46.97L79.2 47.13L82.8 47.29L86.4 47.45L90 47.61L93.6 47.76L97.2 47.92L100.8 48.07L104.4 48.22L108 48.36L111.6 48.51L115.2 48.65L118.8 48.79L122.4 48.93L126 49.07L129.6 49.2L133.2 49.33L136.8 49.46L140.4 49.59L144 49.71L147.6 49.84L151.2 49.96L154.8 50.07L158.4 50.19L162 50.3L165.6 50.41L169.2 50.52L172.8 50.62L176.4 50.73L180 50.83L183.6 50.92L187.2 51.02L190.8 51.11L194.4 51.2L198 51.28L201.6 51.37L205.2 51.45L208.8 51.52L212.4 51.6L216 51.67L219.6 51.74L223.2 51.8L226.8 51.87L230.4 51.93L234 51.99L237.6 52.04L241.2 52.09L244.8 52.14L248.4 52.18L252 52.23L255.6 52.27L259.2 52.3L262.8 52.34L266.4 52.37L270 52.39L273.6 52.42L277.2 52.44L280.8 52.46L284.4 52.47L288 52.48L291.6 52.49L295.2 52.5H298.8H302.4H306L309.6 52.49L313.2 52.48L316.8 52.47L320.4 52.45L324 52.43L327.6 52.41L331.2 52.38L334.8 52.36L338.4 52.32L342 52.29L345.6 52.25L349.2 52.21L352.8 52.17L356.4 52.12L360 52.07L363.6 52.02L367.2 51.97L370.8 51.91L374.4 51.85L378 51.78L381.6 51.72L385.2 51.65L388.8 51.57L392.4 51.5L396 51.42L399.6 51.34L403.2 51.25L406.8 51.17L410.4 51.08L414 50.99L417.6 50.89L421.2 50.79L424.8 50.69L428.4 50.59L432 50.48L435.6 50.38L439.2 50.26L442.8 50.15L446.4 50.04L450 49.92L453.6 49.8L457.2 49.67L460.8 49.55L464.4 49.42L468 49.29L471.6 49.16L475.2 49.02L478.8 48.88L482.4 48.75L486 48.6L489.6 48.46L493.2 48.32L496.8 48.17L500.4 48.02L504 47.87L507.6 47.71L511.2 47.56L514.8 47.4L518.4 47.24L522 47.08L525.6 46.92L529.2 46.75L532.8 46.59L536.4 46.42L540 46.25L543.6 46.08L547.2 45.91L550.8 45.73L554.4 45.56L558 45.38L561.6 45.2L565.2 45.02L568.8 44.84L572.4 44.66L576 44.48L579.6 44.3L583.2 44.11L586.8 43.92L590.4 43.74L594 43.55L597.6 43.36L601.2 43.17L604.8 42.98L608.4 42.79L612 42.6L615.6 42.41L619.2 42.21L622.8 42.02L626.4 41.83L630 41.63L633.6 41.44L637.2 41.24L640.8 41.05L644.4 40.85L648 40.65L651.6 40.46L655.2 40.26L658.8 40.07L662.4 39.87L666 39.67L669.6 39.48L673.2 39.28L676.8 39.08L680.4 38.89L684 38.69L687.6 38.5L691.2 38.3L694.8 38.11L698.4 37.92L702 37.72L705.6 37.53L709.2 37.34L712.8 37.15L716.4 36.95L720 36.76L723.6 36.58L727.2 36.39L730.8 36.2L734.4 36.01L738 35.83L741.6 35.64L745.2 35.46L748.8 35.28L752.4 35.1L756 34.92L759.6 34.74L763.2 34.56L766.8 34.38L770.4 34.21L774 34.04L777.6 33.86L781.2 33.69L784.8 33.52L788.4 33.36L792 33.19L795.6 33.03L799.2 32.87L802.8 32.71L806.4 32.55L810 32.39L813.6 32.24L817.2 32.08L820.8 31.93L824.4 31.78L828 31.64L831.6 31.49L835.2 31.35L838.8 31.21L842.4 31.07L846 30.93L849.6 30.8L853.2 30.67L856.8 30.54L860.4 30.41L864 30.29L867.6 30.16L871.2 30.04L874.8 29.93L878.4 29.81L882 29.7L885.6 29.59L889.2 29.48L892.8 29.38L896.4 29.27L900 29.17L903.6 29.08L907.2 28.98L910.8 28.89L914.4 28.8L918 28.72L921.6 28.63L925.2 28.55L928.8 28.48L932.4 28.4L936 28.33L939.6 28.26L943.2 28.2L946.8 28.13L950.4 28.07L954 28.01L957.6 27.96L961.2 27.91L964.8 27.86L968.4 27.82L972 27.77L975.6 27.73L979.2 27.7L982.8 27.66L986.4 27.63L990 27.61L993.6 27.58L997.2 27.56L1000.8 27.54L1004.4 27.53L1008 27.52L1011.6 27.51L1015.2 27.5H1018.8H1022.4H1026L1029.6 27.51L1033.2 27.52L1036.8 27.53L1040.4 27.55L1044 27.57L1047.6 27.59L1051.2 27.62L1054.8 27.64L1058.4 27.68L1062 27.71L1065.6 27.75L1069.2 27.79L1072.8 27.83L1076.4 27.88L1080 27.93L1083.6 27.98L1087.2 28.03L1090.8 28.09L1094.4 28.15L1098 28.22L1101.6 28.28L1105.2 28.35L1108.8 28.43L1112.4 28.5L1116 28.58L1119.6 28.66L1123.2 28.75L1126.8 28.83L1130.4 28.92L1134 29.01L1137.6 29.11L1141.2 29.21L1144.8 29.31L1148.4 29.41L1152 29.52L1155.6 29.62L1159.2 29.74L1162.8 29.85L1166.4 29.96L1170 30.08L1173.6 30.2L1177.2 30.33L1180.8 30.45L1184.4 30.58L1188 30.71L1191.6 30.84L1195.2 30.98L1198.8 31.12L1202.4 31.25L1206 31.4L1209.6 31.54L1213.2 31.68L1216.8 31.83L1220.4 31.98L1224 32.13L1227.6 32.29L1231.2 32.44L1234.8 32.6L1238.4 32.76L1242 32.92L1245.6 33.08L1249.2 33.25L1252.8 33.41L1256.4 33.58L1260 33.75L1263.6 33.92L1267.2 34.09L1270.8 34.27L1274.4 34.44L1278 34.62L1281.6 34.8L1285.2 34.98L1288.8 35.16L1292.4 35.34L1296 35.52L1299.6 35.7L1303.2 35.89L1306.8 36.08L1310.4 36.26L1314 36.45L1317.6 36.64L1321.2 36.83L1324.8 37.02L1328.4 37.21L1332 37.4L1335.6 37.59L1339.2 37.79L1342.8 37.98L1346.4 38.17L1350 38.37L1353.6 38.56L1357.2 38.76L1360.8 38.95L1364.4 39.15L1368 39.35L1371.6 39.54L1375.2 39.74L1378.8 39.93L1382.4 40.13L1386 40.33L1389.6 40.52L1393.2 40.72L1396.8 40.92L1400.4 41.11L1404 41.31L1407.6 41.5L1411.2 41.7L1414.8 41.89L1418.4 42.08L1422 42.28L1425.6 42.47L1429.2 42.66L1432.8 42.85L1436.4 43.05L1440 43.24V0H0Z" fill="#2DBA4E"/>
</svg>
